<svg width="80" height="80" viewBox="0 0 80 80" fill="none" xmlns="http://www.w3.org/2000/svg">
<path d="M56.7921 45.0631C56.4579 44.037 55.9466 43.0745 55.2598 42.1754C54.5717 41.2774 53.7174 40.4798 52.6958 39.7828C51.6738 39.0866 50.4757 38.5368 49.1008 38.1328C48.5498 37.9868 47.5805 37.7572 46.3039 37.4452C45.3915 37.223 44.536 36.9952 43.5717 36.763V25.4355C44.536 25.6923 45.2059 26.1 45.921 26.553C47.4509 27.5216 48.4102 29.1786 48.6912 31.4286H56.1028C56.0328 29.5 55.6046 27.9186 54.8175 26.4979C53.9529 24.9397 52.7842 23.6024 51.3107 22.5383C49.8374 21.4752 48.0722 20.6644 46.1273 20.1324C45.2826 19.9017 44.5361 19.7077 43.5718 19.5771V16H36.7145V19.5536C35.9645 19.6655 35.0915 19.8156 34.3117 20.009C32.4643 20.4679 30.8415 21.1734 29.3883 22.1265C27.9342 23.0806 26.7791 24.2814 25.8949 25.7294C25.0109 27.1783 24.5758 28.8923 24.5758 30.8723C24.5758 31.8993 24.7265 32.9072 25.0212 33.8975C25.316 34.8876 25.8186 35.8225 26.5257 36.7026C27.2332 37.5826 28.1859 38.3802 29.3851 39.0953C30.5833 39.8101 32.0321 40.3879 33.8397 40.8279C34.8348 41.0791 35.8573 41.3137 36.7144 41.5325V54.3453C35.5358 54.0325 34.3691 53.5525 33.4274 52.9011C32.4449 52.2232 31.7061 51.4061 31.1562 50.3421C30.6441 49.3532 30.3984 48.1429 30.3626 46.8571H23C23.0745 49.1071 23.5625 51.0886 24.4649 52.7897C25.4077 54.5688 26.6649 55.9998 28.2368 57.1357C29.8078 58.2728 31.6004 59.1024 33.7224 59.6526C34.6744 59.8994 35.7502 60.0769 36.7145 60.2129V64H43.5718V60.2993C44.6433 60.1847 45.603 60.0111 46.6283 59.7765C48.6321 59.3187 50.4475 58.5941 52.0194 57.6041C53.5904 56.6141 54.8717 55.3404 55.835 53.7811C56.7971 52.2232 57.2863 50.3435 57.2863 48.1434C57.2864 47.1172 57.1254 46.0901 56.7921 45.0631ZM36.7145 35.0392C35.4288 34.6381 34.1525 34.0655 33.2804 33.3197C32.3567 32.5317 31.9226 31.4411 31.9226 30.0471C31.9226 29.057 32.1812 28.2321 32.673 27.5719C33.1638 26.9117 33.7351 26.3892 34.4816 26.0043C35.1438 25.6626 35.9645 25.408 36.7145 25.2395V35.0392ZM49.4543 51.0862C49.1394 51.8011 48.6294 52.4336 47.9218 52.9838C47.2144 53.5338 46.2349 53.9832 45.0956 54.3313C44.6135 54.479 44.2146 54.5932 43.5717 54.678V43.202C44.6432 43.4831 45.5196 43.7732 46.3924 44.0731C47.2562 44.3671 48.0797 44.8706 48.8071 45.5856C49.5341 46.3009 49.9117 47.4102 49.9117 48.9134C49.9118 49.6474 49.7684 50.3711 49.4543 51.0862Z" fill="#0CA06B"/>
</svg>
