<svg width="80" height="80" viewBox="0 0 80 80" fill="none" xmlns="http://www.w3.org/2000/svg">
<path fill-rule="evenodd" clip-rule="evenodd" d="M21 48.0107L23.1599 42.6667H25.4452C25.386 41.7523 25.3557 40.8363 25.3545 39.92C25.3545 38.7253 25.4052 37.616 25.5038 36.5867H21L23.1599 31.2453H26.5571C29.7197 21.0827 36.8501 16 47.9404 16C51.5856 16 55.0495 16.472 58.332 17.4187V24.1493C55.2428 22.7688 51.8946 22.0634 48.511 22.08C41.8633 22.08 37.5888 25.136 35.6848 31.248H55.4788L53.3189 36.5893H34.3942C34.2809 37.4691 34.231 38.3558 34.2449 39.2427C34.2449 40.52 34.2849 41.6613 34.3649 42.6693H50.8523L48.719 48.0107H35.5062C36.9274 51.7147 38.6607 54.2907 40.7033 55.744C42.7432 57.1947 45.6578 57.92 49.4417 57.92C52.1456 57.92 55.1081 57.2613 58.332 55.944V62.272C55.2681 63.424 51.6256 64 47.3991 64C36.2875 64 29.2584 58.6693 26.3171 48.0107H21Z" fill="#0F8FF8"/>
</svg>
