<svg width="80" height="80" viewBox="0 0 80 80" fill="none" xmlns="http://www.w3.org/2000/svg">
<g clip-path="url(#clip0_3013_5762)">
<mask id="mask0_3013_5762" style="mask-type:luminance" maskUnits="userSpaceOnUse" x="0" y="11" width="204" height="44">
<path d="M0.988281 11.1337H203.038V54.966H0.988281V11.1337Z" fill="white"/>
</mask>
<g mask="url(#mask0_3013_5762)">
<path d="M24.0046 45.6595C24.0046 47.0077 23.7848 48.1653 23.3403 49.1373C22.8941 50.1077 22.321 50.943 21.6209 51.6431C20.517 52.747 19.1737 53.5384 17.596 54.0073C16.0166 54.4795 14.3379 54.7155 12.5599 54.7155C11.0229 54.7155 9.50542 54.4925 8.00747 54.0464C6.50952 53.6002 5.16788 52.8382 3.98255 51.7604C3.1196 50.9788 2.40482 50.0166 1.8382 48.8736C1.27159 47.7257 0.988281 46.4655 0.988281 45.0929H6.32716C6.32716 45.7963 6.46882 46.4459 6.75212 47.0516C7.03543 47.6622 7.39201 48.18 7.82674 48.6098C8.44709 49.2301 9.19443 49.6404 10.0688 49.8456C10.9448 50.0475 11.8012 50.1484 12.6381 50.1484C13.6394 50.1484 14.5822 50.0312 15.4712 49.8016C16.3602 49.5737 17.0749 49.1764 17.6155 48.6098C17.9379 48.263 18.2065 47.8918 18.4264 47.4961C18.6413 47.1053 18.7487 46.5632 18.7487 45.8598C18.7487 44.8096 18.4068 44.0232 17.7181 43.4956C17.0294 42.973 16.2429 42.6262 15.349 42.465C14.3786 42.2761 13.3138 42.1426 12.1545 42.0644C10.992 41.9814 9.94178 41.8593 8.99905 41.6981C7.99933 41.5353 7.06148 41.252 6.18551 40.8482C5.30954 40.4444 4.54102 39.912 3.87997 39.2509C3.21892 38.5899 2.69301 37.7937 2.30224 36.8624C1.91147 35.9343 1.71609 34.8776 1.71609 33.6923C1.71609 32.559 1.94567 31.5235 2.40482 30.5759C2.86397 29.6348 3.47129 28.7865 4.22678 28.031C5.16788 27.0867 6.38089 26.3458 7.86582 25.8085C9.35074 25.268 10.9415 24.9977 12.6381 24.9977C14.1751 24.9977 15.6519 25.2338 17.0684 25.7059C18.485 26.1798 19.6817 26.8734 20.6488 27.7868C21.5134 28.5976 22.207 29.511 22.7346 30.5368C23.2572 31.5626 23.5357 32.6811 23.5601 33.8925H18.2212C18.1968 33.3796 18.0649 32.8765 17.8402 32.3783C17.6057 31.8801 17.3175 31.4405 16.9707 31.0643C16.5083 30.5791 15.8603 30.2014 15.0267 29.9311C14.1914 29.6625 13.3805 29.5257 12.599 29.5257C11.7882 29.5257 10.9594 29.6332 10.1127 29.8481C9.26282 30.0663 8.54152 30.4847 7.94886 31.1034C7.64927 31.4258 7.41318 31.7759 7.24059 32.1536C7.06474 32.5313 6.97682 32.9905 6.97682 33.5311C6.97682 34.4722 7.24547 35.1918 7.78278 35.6901C8.32334 36.1915 9.0251 36.509 9.88805 36.6425C10.8064 36.7793 11.8386 36.8998 12.9849 37.004C14.1311 37.1147 15.1748 37.2368 16.1159 37.3704C17.1954 37.5315 18.2163 37.8246 19.1737 38.2398C20.1311 38.6566 20.9664 39.2086 21.6795 39.8957C22.3927 40.5844 22.9642 41.4148 23.3793 42.3819C23.7945 43.354 24.0046 44.4432 24.0046 45.6595Z" fill="#D6002A"/>
</g>
<mask id="mask1_3013_5762" style="mask-type:luminance" maskUnits="userSpaceOnUse" x="0" y="11" width="204" height="44">
<path d="M0.988281 11.1337H203.038V54.966H0.988281V11.1337Z" fill="white"/>
</mask>
<g mask="url(#mask1_3013_5762)">
<path fill-rule="evenodd" clip-rule="evenodd" d="M46.6 54.234L44.5778 51.9676C43.4185 52.9933 42.1436 53.7488 40.7531 54.234C39.3659 54.7192 37.9298 54.9618 36.4449 54.9618C35.1782 54.9618 33.9652 54.7583 32.8059 54.3512C31.6433 53.9507 30.6322 53.3792 29.7725 52.6367C28.9096 51.8943 28.2209 50.9841 27.7063 49.9063C27.1935 48.8268 26.9395 47.6154 26.9395 46.2672C26.9395 44.4892 27.4035 42.9653 28.3365 41.6953C29.2645 40.4302 30.5003 39.3262 32.039 38.3835C31.575 37.895 31.1598 37.4164 30.7836 36.9426C30.4026 36.4736 30.0803 35.9949 29.8116 35.5065C29.543 35.0229 29.3329 34.51 29.1864 33.9727C29.035 33.4354 28.9617 32.8248 28.9617 32.1557C28.9617 31.0224 29.1717 30.0113 29.5918 29.1223C30.0086 28.2333 30.5671 27.4713 31.2672 26.8363C31.9674 26.2046 32.7977 25.7259 33.7584 25.4003C34.7125 25.0779 35.7301 24.9167 36.8113 24.9167C37.8614 24.9167 38.8677 25.073 39.8251 25.3807C40.7824 25.6901 41.6259 26.1492 42.3553 26.7582C43.0831 27.3639 43.6595 28.1063 44.0942 28.9807C44.5241 29.8566 44.739 30.8612 44.739 31.9945C44.739 32.9372 44.6071 33.7773 44.3336 34.5198C44.0649 35.2623 43.6888 35.9363 43.2003 36.542C42.7168 37.1477 42.1404 37.7045 41.4809 38.2174C40.8215 38.7303 40.0986 39.2139 39.3171 39.673L44.2945 45.0901C44.5355 44.6342 44.7032 44.1017 44.7976 43.4928C44.8953 42.8871 44.9686 42.2472 45.0223 41.5731C45.0777 40.9284 45.1053 40.295 45.1053 39.673V38.0611H52.5055V42.0616H49.1889C49.1351 43.1948 48.9886 44.3134 48.7444 45.4173C48.5001 46.5261 48.0703 47.547 47.4499 48.4946L52.7497 54.234H46.6ZM34.9893 41.5341C34.5041 41.8337 34.058 42.117 33.6509 42.384C33.2504 42.6575 32.8889 42.9653 32.5812 43.3169C32.2735 43.6686 32.0292 44.0643 31.8534 44.5088C31.6775 44.9533 31.5896 45.471 31.5896 46.067C31.5896 46.7931 31.7313 47.4395 32.0146 48.0062C32.2979 48.5728 32.6756 49.0449 33.1478 49.4227C33.6216 49.7988 34.1638 50.0821 34.7841 50.2726C35.4045 50.4582 36.0541 50.551 36.7282 50.551C37.5912 50.551 38.4541 50.4305 39.3171 50.1896C40.1816 49.9453 40.9192 49.4764 41.5396 48.773L34.9893 41.5341ZM40.0107 32.1947C40.0107 31.1983 39.7062 30.4298 39.0973 29.8892C38.4916 29.3519 37.7296 29.0832 36.8113 29.0832C35.976 29.0832 35.2335 29.3324 34.5888 29.8306C33.9407 30.3288 33.6167 31.0762 33.6167 32.0726C33.6167 32.5318 33.7046 32.9632 33.8805 33.367C34.0531 33.7741 34.268 34.1583 34.5253 34.5198C34.7841 34.8861 35.0723 35.2281 35.3947 35.5504C35.7171 35.8728 36.0297 36.1854 36.3277 36.4785C36.7575 36.2392 37.1971 35.9901 37.6416 35.7312C38.0845 35.4772 38.4818 35.1874 38.8335 34.8617C39.1852 34.5393 39.4685 34.1616 39.6834 33.7285C39.8983 33.3035 40.0107 32.7906 40.0107 32.1947Z" fill="#D6002A"/>
</g>
<mask id="mask2_3013_5762" style="mask-type:luminance" maskUnits="userSpaceOnUse" x="2" y="24" width="78" height="31">
<path d="M2.13672 24.9939H79.6393V54.9619H2.13672V24.9939Z" fill="white"/>
</mask>
<g mask="url(#mask2_3013_5762)">
<path fill-rule="evenodd" clip-rule="evenodd" d="M77.9307 34.707C77.9307 36.0795 77.7158 37.33 77.2811 38.4681C76.8512 39.5981 76.2113 40.5685 75.3614 41.3793C74.5115 42.1853 73.4515 42.8154 72.1864 43.2599C70.9164 43.7027 69.4592 43.9242 67.8147 43.9242H61.748V54.1965H56.5703V25.5288H67.8147C69.4592 25.5288 70.9164 25.7502 72.1864 26.1931C73.4532 26.6392 74.5115 27.2596 75.3614 28.0541C76.2113 28.8487 76.8512 29.8126 77.2811 30.9458C77.7142 32.079 77.9307 33.3328 77.9307 34.707ZM72.67 34.746C72.67 33.3686 72.2695 32.2549 71.4586 31.3903C70.6478 30.5306 69.368 30.0959 67.6144 30.0959H61.748V39.3571H67.6144C69.368 39.3571 70.6478 38.9321 71.4586 38.0822C72.2646 37.2323 72.67 36.1235 72.67 34.746Z" fill="#D6002A"/>
</g>
</g>
<defs>
<clipPath id="clip0_3013_5762">
<rect width="77.5004" height="30" fill="white" transform="translate(1 25)"/>
</clipPath>
</defs>
</svg>
