<svg width="80" height="80" viewBox="0 0 80 80" fill="none" xmlns="http://www.w3.org/2000/svg">
<path d="M13.4816 41.0909L9.83555 40.0856L11.3357 24.4278H26.2427V28.7914H15.1337L14.3741 36.4278C14.8046 36.1426 15.3996 35.8645 16.1592 35.5936C16.9188 35.3084 17.786 35.1658 18.7608 35.1658C20.0647 35.1658 21.2294 35.4082 22.2549 35.893C23.293 36.3636 24.1729 37.0553 24.8945 37.9679C25.6161 38.8663 26.1668 39.9643 26.5466 41.262C26.9264 42.5455 27.1163 43.9929 27.1163 45.6043C27.1163 47.0446 26.9264 48.3922 26.5466 49.6471C26.1794 50.902 25.6224 52.0071 24.8755 52.9626C24.1286 53.918 23.1854 54.6667 22.046 55.2086C20.9193 55.7362 19.5837 56 18.0392 56C16.8871 56 15.7794 55.8146 14.7159 55.4438C13.6652 55.0588 12.722 54.4955 11.8865 53.754C11.0509 52.9982 10.3799 52.0713 9.87353 50.9733C9.36714 49.861 9.07596 48.5847 9 47.1444H13.4816C13.5955 48.1569 13.8424 49.0196 14.2222 49.7326C14.6147 50.4314 15.1337 50.9661 15.7794 51.3369C16.425 51.7077 17.1719 51.893 18.0202 51.893C18.7924 51.893 19.4571 51.7433 20.0141 51.4438C20.5711 51.1301 21.0332 50.6881 21.4003 50.1176C21.7801 49.533 22.0587 48.8485 22.2359 48.0642C22.4258 47.2799 22.5207 46.41 22.5207 45.4545C22.5207 44.5419 22.4131 43.7077 22.1979 42.9519C21.9954 42.1961 21.6852 41.5401 21.2674 40.984C20.8623 40.4278 20.3496 40 19.7292 39.7005C19.1089 39.3868 18.3936 39.2299 17.5834 39.2299C16.4946 39.2299 15.6591 39.4082 15.0767 39.7647C14.507 40.1212 13.9753 40.5633 13.4816 41.0909Z" fill="#D6002A"/>
<path d="M48.8026 37.3904V42.4813C48.8026 44.9198 48.5874 47.0018 48.157 48.7273C47.7392 50.4385 47.1315 51.8289 46.334 52.8984C45.5364 53.9679 44.5806 54.7522 43.4665 55.2513C42.3651 55.7504 41.1308 56 39.7635 56C38.6747 56 37.662 55.8431 36.7251 55.5294C35.801 55.2157 34.9654 54.7237 34.2185 54.0535C33.4715 53.3832 32.8322 52.5205 32.3005 51.4652C31.7814 50.3957 31.3763 49.1194 31.0851 47.6364C30.8066 46.1533 30.6674 44.4349 30.6674 42.4813V37.3904C30.6674 34.9376 30.8826 32.8699 31.313 31.1872C31.7435 29.4902 32.3575 28.1141 33.155 27.0588C33.9526 25.9893 34.9021 25.2121 36.0035 24.7273C37.1176 24.2424 38.3582 24 39.7255 24C40.8269 24 41.8397 24.1569 42.7639 24.4706C43.7007 24.7701 44.5363 25.2478 45.2705 25.9037C46.0175 26.5597 46.6505 27.4153 47.1695 28.4706C47.7012 29.5116 48.1063 30.7736 48.3849 32.2567C48.6634 33.7255 48.8026 35.4367 48.8026 37.3904ZM44.2261 43.2086V36.6203C44.2261 35.3797 44.1628 34.2888 44.0362 33.3476C43.9096 32.3922 43.7197 31.5865 43.4665 30.9305C43.226 30.2602 42.9221 29.7184 42.555 29.3048C42.1879 28.877 41.7701 28.5704 41.3017 28.385C40.8333 28.1854 40.3079 28.0856 39.7255 28.0856C39.0166 28.0856 38.3836 28.2424 37.8265 28.5561C37.2695 28.8556 36.8011 29.3405 36.4213 30.0107C36.0415 30.6809 35.7503 31.5651 35.5478 32.6631C35.3579 33.7469 35.2629 35.066 35.2629 36.6203V43.2086C35.2629 44.4635 35.3262 45.5686 35.4528 46.5241C35.5794 47.4795 35.7693 48.2995 36.0225 48.984C36.2757 49.6542 36.5795 50.2103 36.934 50.6524C37.3011 51.0802 37.7189 51.3939 38.1873 51.5936C38.6684 51.7932 39.1938 51.893 39.7635 51.893C40.4851 51.893 41.1244 51.7362 41.6815 51.4225C42.2385 51.1087 42.7069 50.6096 43.0867 49.9251C43.4665 49.2264 43.7514 48.3209 43.9413 47.2086C44.1311 46.0963 44.2261 44.7629 44.2261 43.2086Z" fill="#D6002A"/>
<path d="M70.9068 37.3904V42.4813C70.9068 44.9198 70.6916 47.0018 70.2611 48.7273C69.8434 50.4385 69.2357 51.8289 68.4381 52.8984C67.6405 53.9679 66.6847 54.7522 65.5706 55.2513C64.4692 55.7504 63.2349 56 61.8676 56C60.7789 56 59.7661 55.8431 58.8293 55.5294C57.9051 55.2157 57.0695 54.7237 56.3226 54.0535C55.5757 53.3832 54.9364 52.5205 54.4046 51.4652C53.8856 50.3957 53.4805 49.1194 53.1893 47.6364C52.9108 46.1533 52.7715 44.4349 52.7715 42.4813V37.3904C52.7715 34.9376 52.9867 32.8699 53.4172 31.1872C53.8476 29.4902 54.4616 28.1141 55.2592 27.0588C56.0568 25.9893 57.0062 25.2121 58.1077 24.7273C59.2217 24.2424 60.4624 24 61.8297 24C62.9311 24 63.9439 24.1569 64.868 24.4706C65.8049 24.7701 66.6404 25.2478 67.3747 25.9037C68.1216 26.5597 68.7546 27.4153 69.2737 28.4706C69.8054 29.5116 70.2105 30.7736 70.489 32.2567C70.7675 33.7255 70.9068 35.4367 70.9068 37.3904ZM66.3302 43.2086V36.6203C66.3302 35.3797 66.2669 34.2888 66.1403 33.3476C66.0137 32.3922 65.8238 31.5865 65.5706 30.9305C65.3301 30.2602 65.0263 29.7184 64.6591 29.3048C64.292 28.877 63.8742 28.5704 63.4058 28.385C62.9374 28.1854 62.412 28.0856 61.8297 28.0856C61.1207 28.0856 60.4877 28.2424 59.9307 28.5561C59.3736 28.8556 58.9052 29.3405 58.5254 30.0107C58.1456 30.6809 57.8545 31.5651 57.6519 32.6631C57.462 33.7469 57.3671 35.066 57.3671 36.6203V43.2086C57.3671 44.4635 57.4304 45.5686 57.5569 46.5241C57.6835 47.4795 57.8734 48.2995 58.1266 48.984C58.3798 49.6542 58.6837 50.2103 59.0382 50.6524C59.4053 51.0802 59.8231 51.3939 60.2915 51.5936C60.7726 51.7932 61.2979 51.893 61.8676 51.893C62.5892 51.893 63.2286 51.7362 63.7856 51.4225C64.3426 51.1087 64.8111 50.6096 65.1909 49.9251C65.5707 49.2264 65.8555 48.3209 66.0454 47.2086C66.2353 46.0963 66.3302 44.7629 66.3302 43.2086Z" fill="#D6002A"/>
</svg>
