<svg width="80" height="80" viewBox="0 0 80 80" fill="none" xmlns="http://www.w3.org/2000/svg">
<path d="M54.6835 16L42.0383 49.7385C41.7018 50.6425 40.8076 51.2907 39.7598 51.2907H53.3067C54.3564 51.2907 55.2487 50.6425 55.587 49.7385L68.2305 16H54.6835Z" fill="#0095C5"/>
<path d="M25.8786 28.7095C24.8338 28.7095 23.9422 29.3543 23.6067 30.2619L11 64.0003H24.5884L37.197 30.2619C37.5325 29.3543 38.4241 28.7095 39.4707 28.7095L25.8786 28.7095Z" fill="#0095C5"/>
<path fill-rule="evenodd" clip-rule="evenodd" d="M40.2831 28.4947C40.2096 28.4954 40.137 28.4992 40.0652 28.5059C40.137 28.4992 40.2096 28.4953 40.2831 28.4947ZM40.0652 28.5059C40.0301 28.5091 39.9953 28.5131 39.9606 28.5176C39.9953 28.5131 40.0301 28.5091 40.0652 28.5059ZM38.4175 30.5407C38.7659 29.6228 39.6913 28.9711 40.776 28.9711C41.8204 28.9711 42.7625 29.6197 43.0293 30.5644L45.4652 37.1955L40.7628 49.7161C40.4145 50.6341 39.4891 51.2857 38.4044 51.2857C37.3604 51.2857 36.5502 50.6618 36.1148 49.6808L33.6426 42.9784L38.4175 30.5407Z" fill="#0095C5"/>
</svg>
