<svg width="80" height="80" viewBox="0 0 80 80" fill="none" xmlns="http://www.w3.org/2000/svg">
<g clip-path="url(#clip0_3013_5835)">
<path d="M19.9746 40.073V16.0541L33.1937 16.0872L46.4128 16.1203L47.5436 16.4035C53.0262 17.7768 57.0474 21.2787 59.0152 26.3938C59.4889 27.6251 59.9234 29.6201 60.0032 30.9302L60.0683 31.9987H56.074H52.0798L52.0177 31.4872C51.8112 29.7873 51.275 28.433 50.3142 27.1843C49.3532 25.9354 47.9072 24.9228 46.3051 24.3768L45.4436 24.0832L36.7475 24.0526L28.0515 24.022V40.0722V56.1225H32.036H36.0206V60.1072V64.0919H27.9976H19.9746V40.073Z" fill="#13A3D7"/>
<path d="M42.0527 60.1394V56.1556L43.4796 56.0831C44.2644 56.0432 45.2134 55.9386 45.5884 55.8505C47.8905 55.3102 50.1198 53.5498 51.158 51.4525C52.0264 49.6981 51.9951 49.9747 52.0402 43.6572L52.0803 38.0301H56.0652H60.0501L60.0094 44.1418L59.9687 50.2535L59.6901 51.3843C58.9072 54.5623 57.5484 56.9939 55.2975 59.2448C53.4706 61.0718 51.4519 62.3434 49.0697 63.168C47.2907 63.7837 46.1198 63.9883 43.9643 64.0598L42.0527 64.1232V60.1394Z" fill="#13A3D7"/>
</g>
<defs>
<clipPath id="clip0_3013_5835">
<rect width="39.9346" height="48" fill="white" transform="translate(20 16)"/>
</clipPath>
</defs>
</svg>
