<svg width="80" height="80" viewBox="0 0 80 80" fill="none" xmlns="http://www.w3.org/2000/svg">
<path fill-rule="evenodd" clip-rule="evenodd" d="M33.3962 18.1972C30.9418 18.6484 29.355 19.1861 27.1945 20.2985C21.0892 23.4422 17.0283 29.7952 16.1379 37.5956C15.9612 39.1434 15.962 42.7482 16.1394 44.3813C16.7714 50.2021 18.822 54.8061 22.3396 58.3017C25.6268 61.5683 29.3769 63.3101 34.284 63.8492C41.1963 64.6088 47.4596 62.369 51.8278 57.5759L52.5322 56.8028L50.5266 54.7938L48.5209 52.7847L47.5514 53.7325C45.6971 55.5455 43.2681 56.9333 40.7751 57.6044C39.604 57.9197 39.2563 57.9527 37.1004 57.9527C34.9391 57.9527 34.5985 57.9203 33.4131 57.6013C30.3059 56.7652 27.679 54.8958 25.8251 52.201C24.6296 50.4631 23.6079 47.8325 23.1129 45.2172C22.6856 42.9592 22.6888 38.6404 23.1194 36.4937C24.3846 30.1878 27.8638 25.8811 33.0025 24.2601C34.5696 23.7657 36.0201 23.593 37.94 23.6723C41.8047 23.8319 44.3698 24.9643 47.3068 27.8076L48.6055 29.0649L50.512 27.1584L52.4185 25.2518L51.7709 24.4959C50.8181 23.3839 49.0498 21.8622 47.5963 20.9037C45.6549 19.6234 43.9682 18.9165 41.466 18.3346C39.7208 17.9288 35.2689 17.853 33.3962 18.1972Z" fill="#1D2953"/>
<path fill-rule="evenodd" clip-rule="evenodd" d="M52.2177 17.8162C51.2181 18.8177 50.4004 19.6772 50.4004 19.7262C50.4004 19.853 54.0753 23.5366 54.2018 23.5366C54.2593 23.5366 55.154 22.6875 56.1899 21.6496L58.0733 19.7626L56.1866 17.8789C55.1487 16.8429 54.2402 15.9952 54.1673 15.9952C54.0945 15.9952 53.2171 16.8146 52.2177 17.8162ZM57.8082 23.471L55.8928 25.3901L57.843 27.3404L59.7931 29.2908L61.7432 27.3404L63.6935 25.3901L61.778 23.471C60.7246 22.4156 59.8313 21.5521 59.7931 21.5521C59.7549 21.5521 58.8616 22.4156 57.8082 23.471ZM52.2838 28.9958C51.248 30.0337 50.4004 30.9222 50.4004 30.9701C50.4004 31.0845 54.1038 34.7826 54.2183 34.7826C54.2668 34.7826 55.154 33.9334 56.1899 32.8955L58.0733 31.0086L56.1203 29.0586L54.1674 27.1087L52.2838 28.9958Z" fill="#33B540"/>
</svg>
